<?xml version="1.0" encoding="UTF-8" standalone="no"?>
<!-- Created with Inkscape (http://www.inkscape.org/) -->

<svg
   version="1.1"
   id="svg1"
   width="210"
   height="240"
   viewBox="0 0 210 240"
   xmlns="http://www.w3.org/2000/svg"
   xmlns:svg="http://www.w3.org/2000/svg">
  <defs
     id="defs1" />
  <g
     id="g1">
    <path
       style="fill:#a6e3a1;fill-opacity:1"
       d="m 77.525275,203.98793 c -8.88839,-1.70399 -18.82362,-4.56892 -18.15683,-5.23571 0.27925,-0.27926 3.53236,-1.14058 7.22913,-1.91404 13.95083,-2.91889 30.98175,-13.39206 41.782255,-25.69402 11.78197,-13.41984 11.19965,-15.34006 -4.36525,-14.39471 -18.679655,1.13452 -29.123995,-2.52849 -41.674535,-14.61597 -7.44361,-7.16899 -15.65967,-16.69319 -14.9836,-17.36926 0.61746,-0.61747 16.12621,-3.38554 18.96922,-3.38572 3.71916,-2.3e-4 3.49185,-1.6018 -0.336,-2.36737 -4.32575,-0.86515 -18.8195,-7.78594 -24.5873,-11.74048 -6.51842,-4.46917 -14.18968,-11.72668 -15.90845,-15.050404 l -1.4071,-2.721042 4.74442,-0.782004 c 2.60944,-0.430102 8.34443,-0.723742 12.74443,-0.652533 6.43277,0.104107 7.63432,-0.09737 6.13339,-1.028433 C 34.936645,79.113215 18.467992,67.708983 14.147246,63.795314 5.9853487,56.402385 0.31606773,46.354946 4.3256657,46.388922 c 4.587059,0.03887 29.1981493,4.537036 38.7343593,7.079475 14.90687,3.974305 26.60523,8.538485 40.93017,15.969128 15.63938,8.112475 28.306545,17.296931 41.754145,30.274265 7.23642,6.98335 11.84736,10.71381 12.97431,10.49678 0.96155,-0.18518 4.05869,-3.59976 6.88254,-7.58795 6.77405,-9.567164 8.97256,-11.866036 15.1983,-15.892108 7.68704,-4.971071 15.72082,-6.739216 27.27617,-6.003179 10.27137,0.654251 17,2.144415 17,3.764925 0,0.559856 -2.16373,3.126204 -4.8083,5.702996 -5.81112,5.662206 -8.9246,13.531456 -12.73406,32.185076 -3.13695,15.36057 -4.75353,20.52769 -9.22932,29.5 -12.79985,25.65894 -35.42137,44.00264 -62.22832,50.46069 -11.06195,2.66494 -29.203075,3.44088 -38.550385,1.64891 z M 180.1414,98.34315 c 2.29407,-1.22775 2.55011,-5.208823 0.44725,-6.954043 -0.85288,-0.70782 -2.55869,-0.965139 -4,-0.603392 -1.969,0.494186 -2.51299,1.265252 -2.51299,3.561977 0,1.736708 0.71316,3.346638 1.75,3.950538 2.1956,1.27882 2.01371,1.27693 4.31574,0.0449 z m -50.95267,-4.007107 c -4.61281,-4.372588 -14.28781,-12.417451 -21.5,-17.877474 C 93.288275,65.556629 90.761685,62.388072 85.196695,48.251685 c -3.06545,-7.786959 -6.12103,-18.39558 -6.12103,-21.251521 0,-1.429041 0.37851,-1.415645 3.75,0.13272 15.41288,7.078401 32.491175,19.774271 39.889905,29.653827 5.34123,7.132179 12.12753,19.942426 14.88168,28.091619 2.3796,7.040927 3.19891,17.51484 1.36532,17.45394 -0.7628,-0.0253 -5.16103,-3.62364 -9.77384,-7.996227 z"
       id="path1" />
  </g>
</svg>
